<?xml version="1.0" encoding="UTF-8"?>
<svg xmlns="http://www.w3.org/2000/svg" xmlns:xlink="http://www.w3.org/1999/xlink" viewBox="0 0 64 64" width="64px" height="64px">
<g id="surface203234035">
<path style=" stroke:none;fill-rule:nonzero;fill:rgb(100%,34.117648%,13.333334%);fill-opacity:1;" d="M 11.03125 4 C 7.171875 4 4 7.171875 4 11.03125 L 4 48.984375 C 4 52.828125 7.171875 56 11.03125 56 L 48.984375 56 C 52.828125 56 56 52.828125 56 48.984375 L 56 11.03125 C 56 7.171875 52.828125 4 48.984375 4 Z M 11.03125 8 L 48.984375 8 C 50.671875 8 52 9.328125 52 11.03125 L 52 48.984375 C 52 50.671875 50.671875 52 48.984375 52 L 11.03125 52 C 9.328125 52 8 50.671875 8 48.984375 L 8 11.03125 C 8 9.328125 9.328125 8 11.03125 8 Z M 16 12 C 13.796875 12 12 13.796875 12 16 C 12 18.203125 13.796875 20 16 20 C 18.203125 20 20 18.203125 20 16 C 20 13.796875 18.203125 12 16 12 Z M 12 24 L 12 48 L 20 48 L 20 24 Z M 24 24 L 24 48 L 32 48 L 32 37.28125 C 32 33.953125 32.3125 30.96875 36.3125 30.96875 C 40.25 30.96875 40 34.546875 40 37.5 L 40 48 L 48 48 L 48 36.15625 C 48 29.28125 46.5625 24 38.765625 24 C 35.015625 24 33.125 25.5 32.09375 27.5 L 32 27.5 L 32 24 Z M 24 24 "/>
</g>
</svg>
