<?xml version="1.0" encoding="UTF-8"?>
<svg xmlns="http://www.w3.org/2000/svg" xmlns:xlink="http://www.w3.org/1999/xlink" viewBox="0 0 64 64" width="64px" height="64px">
<g id="surface203628395">
<path style=" stroke:none;fill-rule:nonzero;fill:rgb(100%,34.117648%,13.333334%);fill-opacity:1;" d="M 14 4 C 8.5 4 4 8.5 4 14 L 4 46 C 4 51.5 8.5 56 14 56 L 46 56 C 51.5 56 56 51.5 56 46 L 56 14 C 56 8.5 51.5 4 46 4 Z M 14 8 L 46 8 C 49.339844 8 52 10.660156 52 14 L 52 46 C 52 49.339844 49.339844 52 46 52 L 39.617188 52 L 39.617188 35.867188 L 45.203125 35.867188 L 46.039062 29.429688 L 39.617188 29.429688 L 39.617188 25.328125 C 39.617188 23.464844 40.136719 22.195312 42.828125 22.195312 L 46.265625 22.195312 L 46.265625 16.4375 C 45.667969 16.359375 43.628906 16.1875 41.257812 16.1875 C 36.304688 16.1875 32.921875 19.183594 32.921875 24.6875 L 32.921875 29.429688 L 28 29.414062 L 28 35.851562 L 32.921875 35.867188 L 32.921875 52 L 14 52 C 10.660156 52 8 49.339844 8 46 L 8 14 C 8 10.660156 10.660156 8 14 8 Z M 14 8 "/>
</g>
</svg>
