<?xml version="1.0" encoding="UTF-8"?>
<svg xmlns="http://www.w3.org/2000/svg" xmlns:xlink="http://www.w3.org/1999/xlink" viewBox="0 0 64 64" width="64px" height="64px">
<g id="surface203019951">
<path style=" stroke:none;fill-rule:nonzero;fill:rgb(100%,34.117648%,13.333334%);fill-opacity:1;" d="M 19.804688 5.539062 C 11.949219 5.539062 5.539062 11.949219 5.539062 19.804688 L 5.539062 40.429688 C 5.539062 48.273438 11.949219 54.679688 19.804688 54.679688 L 40.429688 54.679688 C 48.273438 54.679688 54.679688 48.273438 54.679688 40.417969 L 54.679688 19.804688 C 54.679688 11.949219 48.273438 5.539062 40.417969 5.539062 Z M 19.804688 9.320312 L 40.417969 9.320312 C 46.234375 9.320312 50.898438 13.984375 50.898438 19.804688 L 50.898438 40.417969 C 50.898438 46.234375 46.234375 50.898438 40.429688 50.898438 L 19.804688 50.898438 C 13.984375 50.898438 9.320312 46.234375 9.320312 40.429688 L 9.320312 19.804688 C 9.320312 13.984375 13.984375 9.320312 19.804688 9.320312 Z M 45.230469 13.101562 C 44.179688 13.101562 43.339844 13.941406 43.339844 14.988281 C 43.339844 16.039062 44.179688 16.878906 45.230469 16.878906 C 46.277344 16.878906 47.121094 16.039062 47.121094 14.988281 C 47.121094 13.941406 46.277344 13.101562 45.230469 13.101562 Z M 30.109375 16.878906 C 22.832031 16.878906 16.878906 22.832031 16.878906 30.109375 C 16.878906 37.390625 22.832031 43.339844 30.109375 43.339844 C 37.390625 43.339844 43.339844 37.390625 43.339844 30.109375 C 43.339844 22.832031 37.390625 16.878906 30.109375 16.878906 Z M 30.109375 20.660156 C 35.351562 20.660156 39.558594 24.867188 39.558594 30.109375 C 39.558594 35.351562 35.351562 39.558594 30.109375 39.558594 C 24.867188 39.558594 20.660156 35.351562 20.660156 30.109375 C 20.660156 24.867188 24.867188 20.660156 30.109375 20.660156 Z M 30.109375 20.660156 "/>
</g>
</svg>
